P3
# I don't own rights for the image. The image is an example http://netpbm.sourceforge.net/doc/ppm.html
4 4
15
 0  0  0    0  0  0    0  0  0   15  0 15
 0  0  0    0 15  9    0  0  0    0  0  0
 0  0  0    0  0  0    0  0 15    0  0  0
15  0 15    0  0  0    0  0  0    0  0  0
