P2
4 4
15
 0  0  0 10 
 0  8  0  0 
 0  0  5  0 
10  0  0  0 
